HIERARCHY
ROOT Storm:Solving:Root
{
	OFFSET 0.000000 0.000000 0.000000
	CHANNELS 6 Xposition Yposition Zposition Xrotation Yrotation Zrotation
	JOINT Storm:Solving:L_Clav
	{
		OFFSET 0.000000 0.000000 0.000000
		CHANNELS 6 Xposition Yposition Zposition Xrotation Yrotation Zrotation
		JOINT Storm:Solving:L_Scapula_Joint
		{
			OFFSET 4.000000 0.000000 0.000000
			CHANNELS 6 Xposition Yposition Zposition Xrotation Yrotation Zrotation
			JOINT Storm:Solving:L_Shoulder_Joint
			{
				OFFSET 4.002680 -10.770058 -11.084216
				CHANNELS 6 Xposition Yposition Zposition Xrotation Yrotation Zrotation
				JOINT Storm:Solving:L_Elbow_Joint
				{
					OFFSET 2.147804 8.035205 -15.161017
					CHANNELS 6 Xposition Yposition Zposition Xrotation Yrotation Zrotation
					JOINT Storm:Solving:L_Wrist_Joint
					{
						OFFSET -2.240269 9.040073 -20.029085
						CHANNELS 6 Xposition Yposition Zposition Xrotation Yrotation Zrotation
						JOINT Storm:Solving:L_Paw_Joint
						{
							OFFSET 0.706234 -1.834930 -5.721245
							CHANNELS 6 Xposition Yposition Zposition Xrotation Yrotation Zrotation
							End Site
							{
								OFFSET 1.343818 -4.244948 -3.510090
							}
						}
					}
				}
			}
		}
	}
	JOINT Storm:Solving:R_Clav
	{
		OFFSET 0.000000 0.000000 0.000000
		CHANNELS 6 Xposition Yposition Zposition Xrotation Yrotation Zrotation
		JOINT Storm:Solving:R_Scapula_Joint
		{
			OFFSET -4.000000 -0.000001 0.000000
			CHANNELS 6 Xposition Yposition Zposition Xrotation Yrotation Zrotation
			JOINT Storm:Solving:NewBone_3
			{
				OFFSET -4.614829 -9.889530 -11.686038
				CHANNELS 6 Xposition Yposition Zposition Xrotation Yrotation Zrotation
				JOINT Storm:Solving:R_Elbow_Joint
				{
					OFFSET -0.160743 5.491839 -16.404385
					CHANNELS 6 Xposition Yposition Zposition Xrotation Yrotation Zrotation
					JOINT Storm:Solving:R_Wrist_Joint
					{
						OFFSET 2.412016 -1.190895 -21.935680
						CHANNELS 6 Xposition Yposition Zposition Xrotation Yrotation Zrotation
						JOINT Storm:Solving:R_Paw_Joint
						{
							OFFSET -0.535018 -3.806499 -3.351765
							CHANNELS 6 Xposition Yposition Zposition Xrotation Yrotation Zrotation
							End Site
							{
								OFFSET -0.877549 -5.252174 -2.975662
							}
						}
					}
				}
			}
		}
	}
	JOINT Storm:Solving:Root_To_Spine_Dummy
	{
		OFFSET 0.000000 0.000000 0.000000
		CHANNELS 6 Xposition Yposition Zposition Xrotation Yrotation Zrotation
		JOINT Storm:Solving:Spine1
		{
			OFFSET 0.000000 3.827275 -0.000000
			CHANNELS 6 Xposition Yposition Zposition Xrotation Yrotation Zrotation
			JOINT Storm:Solving:Spine2
			{
				OFFSET 0.000001 16.939260 -0.000001
				CHANNELS 6 Xposition Yposition Zposition Xrotation Yrotation Zrotation
				JOINT Storm:Solving:Spine3
				{
					OFFSET 0.000002 14.393892 -0.000001
					CHANNELS 6 Xposition Yposition Zposition Xrotation Yrotation Zrotation
					JOINT Storm:Solving:Pelvis_Root
					{
						OFFSET 0.000002 14.393890 -0.000001
						CHANNELS 6 Xposition Yposition Zposition Xrotation Yrotation Zrotation
						JOINT Storm:Solving:L_Pelvis
						{
							OFFSET 0.000000 0.000000 0.000000
							CHANNELS 6 Xposition Yposition Zposition Xrotation Yrotation Zrotation
							JOINT Storm:Solving:LFemur_Joint
							{
								OFFSET 8.318080 6.728058 -6.780919
								CHANNELS 6 Xposition Yposition Zposition Xrotation Yrotation Zrotation
								JOINT Storm:Solving:LTibia_Joint
								{
									OFFSET 4.762119 -12.109562 -18.232958
									CHANNELS 6 Xposition Yposition Zposition Xrotation Yrotation Zrotation
									JOINT Storm:Solving:LAnkle_Joint
									{
										OFFSET 1.748854 12.690498 -18.426313
										CHANNELS 6 Xposition Yposition Zposition Xrotation Yrotation Zrotation
										JOINT Storm:Solving:LFoot_Joint
										{
											OFFSET 2.893215 -3.420891 -10.324425
											CHANNELS 6 Xposition Yposition Zposition Xrotation Yrotation Zrotation
											End Site
											{
												OFFSET 3.317142 -6.178677 -1.153622
											}
										}
									}
								}
							}
						}
						JOINT Storm:Solving:R_Pelvis
						{
							OFFSET 0.000000 0.000000 0.000000
							CHANNELS 6 Xposition Yposition Zposition Xrotation Yrotation Zrotation
							JOINT Storm:Solving:RFemur_Joint
							{
								OFFSET -8.082922 6.553699 -7.104603
								CHANNELS 6 Xposition Yposition Zposition Xrotation Yrotation Zrotation
								JOINT Storm:Solving:RTibia_Joint
								{
									OFFSET -3.034004 -11.551189 -18.950596
									CHANNELS 6 Xposition Yposition Zposition Xrotation Yrotation Zrotation
									JOINT Storm:Solving:RAnkle_Joint
									{
										OFFSET 0.163292 10.210636 -19.936810
										CHANNELS 6 Xposition Yposition Zposition Xrotation Yrotation Zrotation
										JOINT Storm:Solving:RFoot_Joint
										{
											OFFSET -0.793680 -0.101715 -9.967937
											CHANNELS 6 Xposition Yposition Zposition Xrotation Yrotation Zrotation
											End Site
											{
												OFFSET -4.434014 -4.525612 -1.490955
											}
										}
									}
								}
							}
						}
					}
				}
			}
		}
	}
	JOINT Storm:Solving:Root_To_Neck
	{
		OFFSET 0.000000 0.000000 0.000000
		CHANNELS 6 Xposition Yposition Zposition Xrotation Yrotation Zrotation
		JOINT Storm:Solving:Neck1
		{
			OFFSET 0.000000 -5.729186 4.185542
			CHANNELS 6 Xposition Yposition Zposition Xrotation Yrotation Zrotation
			JOINT Storm:Solving:Neck2
			{
				OFFSET 2.125778 -7.100437 5.862305
				CHANNELS 6 Xposition Yposition Zposition Xrotation Yrotation Zrotation
				JOINT Storm:Solving:Head
				{
					OFFSET -4.381103 -1.801980 5.689912
					CHANNELS 6 Xposition Yposition Zposition Xrotation Yrotation Zrotation
					JOINT Storm:Solving:Head_End
					{
						OFFSET -9.753127 -15.562062 2.579649
						CHANNELS 6 Xposition Yposition Zposition Xrotation Yrotation Zrotation
						End Site
						{
							OFFSET -4.085258 5.421284 17.259089
						}
					}
				}
			}
		}
	}
	JOINT Storm:Solving:R_Clav_1
	{
		OFFSET 0.000000 0.000000 0.000000
		CHANNELS 6 Xposition Yposition Zposition Xrotation Yrotation Zrotation
		End Site
		{
			OFFSET 0.000000 0.000000 0.010000
		}
	}
}
MOTION
Frames: 4
Frame Time: 0.041667
113.527458 22.768070 57.082481 5.144233 2.186520 73.877088 0.000010 -0.000018 0.000009 -0.244123 7.873044 0.033440 3.999999 0.000010 0.000013 -0.306200 -1.542202 11.385409 4.002685 -10.770065 -11.084207 -1.643761 3.723872 -4.138755 2.147810 8.035209 -15.161016 -20.315996 -13.705219 3.965281 -2.240262 9.040065 -20.029097 -2.542239 -5.066576 -2.200699 0.706224 -1.834913 -5.721228 6.133321 1.909396 0.196358 0.000010 -0.000018 0.000009 4.592099 14.606588 -1.160362 -3.999992 -0.000012 -0.000028 5.588409 -5.653273 8.239671 -4.614827 -9.889535 -11.686039 -1.566910 -0.215301 6.860663 -0.160743 5.491832 -16.404369 -4.479525 -0.205606 -0.488556 2.412004 -1.190884 -21.935694 -13.546651 3.307444 6.419606 -0.535019 -3.806500 -3.351765 6.802258 -1.471423 0.758770 0.000010 -0.000018 0.000009 -0.000000 0.000001 0.000001 0.000009 3.827248 0.000003 -9.553102 2.579305 18.079197 -0.000000 16.939243 -0.000007 7.582418 -1.380533 10.312133 0.000004 14.393901 -0.000002 6.149737 10.813271 6.928121 0.000001 14.393890 0.000011 -0.662885 -1.823126 -1.522768 -0.000003 0.000000 -0.000000 -0.000003 -0.000006 -0.000002 8.318087 6.728071 -6.780923 2.660773 4.484742 -5.885536 4.762118 -12.109559 -18.232954 -8.764554 -1.434639 -2.036392 1.748852 12.690501 -18.426319 -11.373558 2.896254 -3.088064 2.893214 -3.420887 -10.324429 3.096926 1.609951 0.294861 0.000000 0.000004 0.000009 0.000004 0.000003 0.000010 -8.082917 6.553695 -7.104607 0.796038 -9.775532 -1.651791 -3.034003 -11.551176 -18.950602 -2.707073 0.449793 0.221499 0.163295 10.210622 -19.936821 -1.435147 -0.959963 0.106474 -0.793694 -0.101714 -9.967955 0.600710 -0.575108 -0.038960 0.000010 -0.000018 0.000009 0.000005 0.000003 0.000005 0.000005 -5.729206 4.185538 1.575516 -11.389335 -16.242581 2.125768 -7.100450 5.862308 10.497381 -10.222238 6.517688 -4.381101 -1.801964 5.689912 5.695803 -7.280408 -44.557910 -9.753094 -15.562057 2.579661 -0.000002 0.000003 -0.000001 0.000010 -0.000018 0.000009 -0.000000 0.000001 0.000003 
113.527458 22.768070 57.082481 5.144233 2.186520 73.877088 0.000010 -0.000018 0.000009 -0.244123 7.873044 0.033440 3.999999 0.000010 0.000013 -0.306200 -1.542202 11.385409 4.002685 -10.770065 -11.084207 -1.643761 3.723872 -4.138755 2.147810 8.035209 -15.161016 -20.315996 -13.705219 3.965281 -2.240262 9.040065 -20.029097 -2.542239 -5.066576 -2.200699 0.706224 -1.834913 -5.721228 6.133321 1.909396 0.196358 0.000010 -0.000018 0.000009 4.592099 14.606588 -1.160362 -3.999992 -0.000012 -0.000028 5.588409 -5.653273 8.239671 -4.614827 -9.889535 -11.686039 -1.566910 -0.215301 6.860663 -0.160743 5.491832 -16.404369 -4.479525 -0.205606 -0.488556 2.412004 -1.190884 -21.935694 -13.546651 3.307444 6.419606 -0.535019 -3.806500 -3.351765 6.802258 -1.471423 0.758770 0.000010 -0.000018 0.000009 -0.000000 0.000001 0.000001 0.000009 3.827248 0.000003 -9.553102 2.579305 18.079197 -0.000000 16.939243 -0.000007 7.582418 -1.380533 10.312133 0.000004 14.393901 -0.000002 6.149737 10.813271 6.928121 0.000001 14.393890 0.000011 -0.662885 -1.823126 -1.522768 -0.000003 0.000000 -0.000000 -0.000003 -0.000006 -0.000002 8.318087 6.728071 -6.780923 2.660773 4.484742 -5.885536 4.762118 -12.109559 -18.232954 -8.764554 -1.434639 -2.036392 1.748852 12.690501 -18.426319 -11.373558 2.896254 -3.088064 2.893214 -3.420887 -10.324429 3.096926 1.609951 0.294861 0.000000 0.000004 0.000009 0.000004 0.000003 0.000010 -8.082917 6.553695 -7.104607 0.796038 -9.775532 -1.651791 -3.034003 -11.551176 -18.950602 -2.707073 0.449793 0.221499 0.163295 10.210622 -19.936821 -1.435147 -0.959963 0.106474 -0.793694 -0.101714 -9.967955 0.600710 -0.575108 -0.038960 0.000010 -0.000018 0.000009 0.000005 0.000003 0.000005 0.000005 -5.729206 4.185538 1.575516 -11.389335 -16.242581 2.125768 -7.100450 5.862308 10.497381 -10.222238 6.517688 -4.381101 -1.801964 5.689912 5.695803 -7.280408 -44.557910 -9.753094 -15.562057 2.579661 -0.000002 0.000003 -0.000001 0.000010 -0.000018 0.000009 -0.000000 0.000001 0.000003 
113.531105 22.748585 57.084969 5.244449 2.198596 73.909716 -0.000003 -0.000014 -0.000003 -0.251806 7.946043 0.034814 4.000002 0.000014 0.000005 -0.318885 -1.535574 11.427482 4.002682 -10.770041 -11.084235 -1.697144 3.702864 -4.122519 2.147809 8.035214 -15.160990 -20.295161 -13.626943 3.805787 -2.240264 9.040062 -20.029099 -2.537795 -5.021702 -2.133981 0.706237 -1.834937 -5.721243 6.128222 1.907801 0.196288 -0.000003 -0.000014 -0.000003 4.603822 14.766157 -1.175761 -4.000007 -0.000024 0.000004 5.563527 -5.868143 8.181059 -4.614819 -9.889524 -11.686035 -1.542421 -0.052420 6.874690 -0.160745 5.491842 -16.404385 -4.484453 -0.205813 -0.489106 2.412020 -1.190897 -21.935703 -13.661877 3.274147 6.447259 -0.535024 -3.806515 -3.351757 6.949502 -1.502183 0.777078 -0.000003 -0.000014 -0.000003 0.000000 0.000000 0.000002 -0.000003 3.827268 0.000003 -9.559007 2.684029 17.993082 -0.000002 16.939255 -0.000002 7.515711 -1.340314 10.285654 0.000003 14.393912 -0.000010 6.137892 10.867774 6.968198 0.000003 14.393902 0.000007 -0.643660 -1.897439 -1.487623 -0.000003 0.000004 -0.000001 -0.000001 0.000000 -0.000003 8.318096 6.728063 -6.780925 2.675022 4.511421 -5.912914 4.762124 -12.109569 -18.232950 -8.778409 -1.436656 -2.039778 1.748852 12.690519 -18.426311 -11.368654 2.869809 -3.082660 2.893211 -3.420888 -10.324420 3.078404 1.600266 0.293353 -0.000002 0.000004 0.000005 0.000008 0.000009 0.000012 -8.082915 6.553693 -7.104604 0.784733 -9.745553 -1.658828 -3.034005 -11.551188 -18.950594 -2.715530 0.451181 0.222226 0.163298 10.210609 -19.936827 -1.400856 -0.974281 0.104553 -0.793689 -0.101706 -9.967954 0.615050 -0.588849 -0.039820 -0.000003 -0.000014 -0.000003 0.000009 0.000001 0.000003 -0.000003 -5.729172 4.185544 1.572100 -11.358164 -16.193260 2.125763 -7.100429 5.862302 10.586910 -10.257151 6.593402 -4.381104 -1.801949 5.689916 5.627979 -7.229171 -44.398750 -9.753122 -15.562058 2.579635 -0.000001 0.000002 -0.000000 -0.000003 -0.000014 -0.000003 0.000000 0.000000 0.000003 
113.535149 22.732616 57.086533 5.352913 2.222573 73.936661 -0.000004 -0.000024 0.000001 -0.253642 7.983180 0.035231 3.999995 -0.000007 0.000022 -0.335249 -1.477922 11.468213 4.002673 -10.770063 -11.084223 -1.751625 3.670831 -4.094559 2.147811 8.035197 -15.161013 -20.322813 -13.583347 3.626600 -2.240270 9.040067 -20.029095 -2.475364 -5.010077 -2.112845 0.706226 -1.834928 -5.721265 6.099652 1.898867 0.195843 -0.000004 -0.000024 0.000001 4.588440 14.885185 -1.181049 -3.999995 -0.000023 -0.000016 5.517042 -5.998929 8.110226 -4.614823 -9.889541 -11.686035 -1.490807 0.036970 6.854084 -0.160745 5.491837 -16.404396 -4.501382 -0.206516 -0.490977 2.412014 -1.190897 -21.935690 -13.585758 3.266224 6.463490 -0.535019 -3.806475 -3.351769 6.842267 -1.479784 0.763739 -0.000004 -0.000024 0.000001 0.000000 0.000000 0.000001 -0.000003 3.827264 0.000001 -9.566882 2.790176 17.927336 -0.000003 16.939255 -0.000003 7.447450 -1.324604 10.242392 0.000006 14.393909 0.000004 6.097404 10.882266 7.019713 -0.000002 14.393894 0.000011 -0.608544 -1.892746 -1.481587 -0.000002 -0.000004 0.000000 -0.000000 -0.000000 0.000003 8.318099 6.728065 -6.780935 2.652274 4.509216 -5.888657 4.762117 -12.109555 -18.232958 -8.711961 -1.427002 -2.023581 1.748857 12.690505 -18.426302 -11.340015 2.911466 -3.086140 2.893216 -3.420891 -10.324420 3.043920 1.582245 0.290550 -0.000000 -0.000004 0.000010 0.000009 0.000003 0.000010 -8.082926 6.553697 -7.104598 0.793484 -9.736231 -1.639623 -3.034004 -11.551197 -18.950600 -2.711031 0.450444 0.221840 0.163300 10.210616 -19.936806 -1.403909 -0.955824 0.104629 -0.793684 -0.101700 -9.967949 0.663997 -0.635746 -0.042710 -0.000004 -0.000024 0.000001 0.000003 0.000001 0.000001 0.000001 -5.729203 4.185550 1.556712 -11.316739 -16.128966 2.125763 -7.100424 5.862308 10.647267 -10.281047 6.644437 -4.381100 -1.801975 5.689908 5.587588 -7.200148 -44.187714 -9.753112 -15.562054 2.579646 0.000006 0.000001 0.000002 -0.000004 -0.000024 0.000001 -0.000000 0.000000 0.000003 
